<?xml version="1.0" encoding="UTF-8" standalone="no"?><!DOCTYPE svg PUBLIC "-//W3C//DTD SVG 1.1//EN" "http://www.w3.org/Graphics/SVG/1.1/DTD/svg11.dtd"><svg width="100%" height="100%" viewBox="0 0 20 20" version="1.1" xmlns="http://www.w3.org/2000/svg" xmlns:xlink="http://www.w3.org/1999/xlink" xml:space="preserve" xmlns:serif="http://www.serif.com/" style="fill-rule:evenodd;clip-rule:evenodd;stroke-linejoin:round;stroke-miterlimit:2;"><path d="M12.509,2.778c0,-0.732 -0.594,-1.326 -1.326,-1.326l-2.653,0c-0.732,0 -1.326,0.594 -1.326,1.326l0,2.653c0,0.732 0.594,1.326 1.326,1.326l2.653,0c0.732,0 1.326,-0.594 1.326,-1.326l0,-2.653Z" style="fill:#444;"/><path d="M18.256,8.525c0,-0.732 -0.594,-1.326 -1.326,-1.326l-2.653,0c-0.732,0 -1.326,0.594 -1.326,1.326l0,2.653c0,0.732 0.594,1.326 1.326,1.326l2.653,0c0.732,0 1.326,-0.594 1.326,-1.326l0,-2.653Z" style="fill:#373737;"/><path d="M18.256,14.273c0,-0.732 -0.594,-1.327 -1.326,-1.327l-2.653,0c-0.732,0 -1.326,0.595 -1.326,1.327l0,2.652c0,0.732 0.594,1.327 1.326,1.327l2.653,0c0.732,0 1.326,-0.595 1.326,-1.327l0,-2.652Z" style="fill:#3d3d3d;"/><path d="M12.509,14.273c0,-0.732 -0.594,-1.327 -1.326,-1.327l-2.653,0c-0.732,0 -1.326,0.595 -1.326,1.327l0,2.652c0,0.732 0.594,1.327 1.326,1.327l2.653,0c0.732,0 1.326,-0.595 1.326,-1.327l0,-2.652Z" style="fill:#373737;"/><path d="M6.762,14.273c0,-0.732 -0.595,-1.327 -1.327,-1.327l-2.652,0c-0.732,0 -1.327,0.595 -1.327,1.327l0,2.652c0,0.732 0.595,1.327 1.327,1.327l2.652,0c0.732,0 1.327,-0.595 1.327,-1.327l0,-2.652Z" style="fill:#353535;"/></svg>